<svg xmlns="http://www.w3.org/2000/svg" version="1.1" xmlns:xlink="http://www.w3.org/1999/xlink" xmlns:svgjs="http://svgjs.com/svgjs" width="1000" height="1000"><rect width="1000" height="1000" rx="200" ry="200" fill="#e5e7e7"></rect><g transform="matrix(1,0,0,1,0,0)"><svg xmlns="http://www.w3.org/2000/svg" version="1.1" xmlns:xlink="http://www.w3.org/1999/xlink" xmlns:svgjs="http://svgjs.com/svgjs" width="180.000000pt" height="180.000000pt"><svg version="1.0" xmlns="http://www.w3.org/2000/svg" width="180.000000pt" height="180.000000pt" viewBox="0 0 180.000000 180.000000" preserveAspectRatio="xMidYMid meet">

<g transform="translate(0.000000,180.000000) scale(0.100000,-0.100000)" fill="#000000" stroke="none">
<path d="M135 1283 c-11 -2 -30 -6 -43 -9 -17 -3 -22 -10 -20 -27 2 -16 13
-24 41 -31 l37 -10 0 -331 c0 -393 -6 -372 109 -361 93 8 98 11 124 65 21 43
22 63 27 321 l5 275 29 14 c26 12 33 12 55 0 l26 -15 3 -314 c3 -374 -3 -356
108 -346 94 7 101 11 127 65 21 43 22 63 27 321 l5 275 29 14 c26 12 33 12 55
0 l26 -15 3 -314 c3 -375 -3 -356 110 -346 86 7 92 10 92 40 0 20 -7 25 -40
30 l-40 6 0 283 c0 321 -7 363 -64 398 -54 33 -113 26 -184 -22 l-62 -42 0
-315 0 -314 -22 6 c-13 3 -28 6 -35 6 -9 0 -13 76 -15 303 -3 333 -6 350 -68
382 -54 28 -110 20 -178 -26 l-62 -42 0 -315 0 -314 -22 6 c-13 3 -29 6 -35 6
-10 0 -13 73 -13 333 0 311 -1 335 -18 350 -18 16 -69 21 -117 10z"></path>
<path d="M1392 1262 c-70 -36 -158 -108 -184 -149 -17 -29 -20 -45 -15 -100 6
-80 9 -83 178 -202 117 -82 124 -89 127 -124 2 -20 5 -37 8 -37 15 0 45 23 55
41 20 39 -5 70 -134 161 -147 104 -167 124 -174 176 -5 34 -1 44 26 73 l30 34
1 -52 c0 -69 21 -93 181 -199 139 -92 146 -102 136 -176 -6 -45 -37 -83 -91
-112 -34 -18 -37 -18 -138 1 l-103 18 -10 65 -10 65 -37 3 -37 3 -3 -113 c-2
-62 -2 -115 0 -118 2 -3 77 -7 167 -9 l164 -3 52 28 c85 47 136 103 145 159 9
66 -1 164 -20 184 -9 9 -74 54 -144 101 -120 80 -127 87 -133 123 -3 21 -3 53
0 70 6 28 11 32 41 35 19 1 58 -3 85 -10 l50 -13 10 -65 11 -65 35 -3 36 -3 6
107 c4 59 6 109 4 110 -7 8 -147 24 -202 24 -46 0 -72 -7 -113 -28z"></path>
</g>
</svg></svg></g></svg>